<svg width="527" height="355" viewBox="0 0 527 355" fill="none" xmlns="http://www.w3.org/2000/svg">
<path d="M255.254 116.191C250.741 117.81 246.455 119.872 242.679 122.874C234.92 129.04 230.214 137.11 228.03 146.735C226.91 151.675 226.419 156.683 226.513 161.744C226.76 174.956 235.767 186.066 248.281 189.199C248.752 189.317 249.219 189.457 249.674 189.623C211.821 186.988 181.373 149.121 192.106 107.741C197.528 114.655 204.011 120.187 211.518 124.689C211.767 124.049 211.526 123.519 211.494 123.003C211.02 115.908 211.071 108.825 211.663 101.731C212.301 94.0878 213.472 86.5498 215.533 79.1651C218.856 67.2625 224.072 56.363 232.543 47.2195C238.643 40.6362 245.933 35.7902 254.22 32.4286C254.53 32.3022 254.868 32.2323 255.192 32.1382C255.211 32.7755 255.243 33.4129 255.243 34.0502C255.249 61.4295 255.251 88.8115 255.254 116.191V116.191Z" fill="#6674CC"/>
<path d="M354.442 58.6556C354.333 61.4631 354.397 64.8731 354.654 68.2589C355.153 74.8206 357.184 80.8553 360.993 86.3037C364.774 91.7145 369.735 95.5467 375.725 98.1391C378.324 99.2633 381.045 99.9867 383.832 100.393C385.7 100.664 387.005 102.074 386.986 103.84C386.946 107.495 387.07 111.152 386.938 114.81C386.869 116.692 386.014 117.833 384.226 118.287C379.949 119.373 375.701 120.503 371.823 122.751C365.913 126.183 361.408 130.916 358.27 136.985C356.211 140.963 355.169 145.204 354.55 149.641C353.936 154.019 354.215 158.378 354.196 162.74C354.18 166.699 354.102 170.663 353.633 174.573C352.797 181.519 350.503 188.006 346.844 194.006C340.193 204.916 330.869 212.486 318.841 216.673C315.742 217.752 312.529 218.413 309.262 218.784C306.282 219.123 304.885 217.894 304.877 214.863C304.872 212.142 304.877 209.42 304.893 206.699C304.899 205.542 305.105 204.394 305.663 203.402C306.418 202.063 307.892 201.786 309.233 201.466C321.354 198.575 330 191.542 334.642 179.855C336.607 174.909 337.459 169.703 337.483 164.365C337.51 158.626 337.529 152.884 337.636 147.145C337.695 144.045 338.56 141.057 339.375 138.096C340.729 133.177 342.993 128.654 345.74 124.367C348.372 120.264 351.61 116.706 355.276 113.522C355.981 112.911 356.683 112.293 357.34 111.634C358.677 110.289 358.698 109.278 357.275 107.941C355.268 106.056 353.135 104.311 351.216 102.321C346.236 97.1603 342.68 91.1148 340.131 84.4535C338.276 79.6048 337.322 74.5625 337.188 69.3695C337.019 62.8293 337.07 56.2756 336.66 49.7514C336.248 43.195 334.106 37.1577 330.26 31.7335C325.605 25.169 319.232 21.1351 311.765 18.6314C310.578 18.2334 309.332 17.9457 308.091 17.7762C306.035 17.4966 304.835 16.3886 304.668 14.3501C304.347 10.4104 304.293 6.47331 304.757 2.52818C305.011 0.368711 306.571 -0.158381 308.327 0.0379346C317.651 1.08136 326.031 4.51823 333.597 10.1065C342.106 16.394 347.852 24.7011 351.519 34.5034C353.269 39.1854 354.086 44.0986 354.239 49.1383C354.33 52.1126 354.429 55.0842 354.448 58.6529L354.442 58.6556Z" fill="#868686"/>
<path d="M205.409 8.85074C205.315 10.3083 205.527 12.215 205.151 14.1217C204.714 16.3376 203.79 17.373 201.568 17.7038C196.674 18.4352 192.287 20.4737 188.27 23.2382C181.907 27.6136 177.453 33.5354 175.062 40.9066C173.693 45.1287 172.824 49.4799 172.79 53.9468C172.752 59.0913 172.715 64.2386 172.79 69.3831C172.841 72.8092 172.181 76.1277 171.417 79.414C170.23 84.4994 168.081 89.219 165.377 93.6751C162.378 98.6153 158.572 102.854 154.126 106.522C153.799 106.791 153.498 107.092 153.193 107.388C151.48 109.044 151.566 110.241 153.405 111.768C161.627 118.594 167.716 126.933 170.948 137.203C172.358 141.686 173.095 146.298 173.159 151.042C173.243 157.327 173.368 163.623 173.682 169.891C174.025 176.762 176.501 183.044 180.808 188.528C184.973 193.831 190.178 197.652 196.516 199.895C198.21 200.495 199.949 200.992 201.697 201.407C204.741 202.127 205.591 202.738 205.757 205.846C205.947 209.394 206.21 212.978 205.508 216.52C205.141 218.37 204.455 218.983 202.584 219C199.529 219.027 196.554 218.424 193.635 217.593C188.125 216.025 183.049 213.551 178.348 210.246C171.72 205.588 166.419 199.753 162.466 192.68C159.748 187.82 157.923 182.662 156.916 177.16C156.061 172.484 156.053 167.794 156.045 163.087C156.037 159.008 156.128 154.92 155.739 150.857C154.841 141.442 151.207 133.344 144.03 127.008C139.471 122.985 134.232 120.358 128.282 119.14C127.625 119.005 126.993 118.758 126.339 118.61C123.726 118.016 123.233 115.953 123.152 113.761C123.024 110.327 122.812 106.877 123.342 103.453C123.637 101.552 124.624 100.538 126.518 100.455C131.809 100.223 136.36 98.0209 140.688 95.2322C146.372 91.5694 150.414 86.4733 152.992 80.2719C154.327 77.0609 155.377 73.7235 155.793 70.206C156.484 64.3596 156.087 58.497 156.275 52.6452C156.406 48.5817 156.489 44.4914 157.427 40.5194C158.977 33.9764 161.608 27.8853 165.417 22.3158C171.809 12.968 180.484 6.62404 191.035 2.83219C194.388 1.62741 197.851 0.723817 201.469 0.562462C204.334 0.436067 205.24 1.6785 205.395 4.31666C205.476 5.67204 205.409 7.03818 205.409 8.84536V8.85074Z" fill="#868686"/>
<path d="M255.248 116.191C255.245 88.8117 255.243 61.4298 255.237 34.0505C255.237 33.4131 255.203 32.7758 255.187 32.1384C258.017 30.7535 261.091 30.1269 264.092 29.2825C264.851 29.07 264.591 29.7396 264.508 30.1027C263.972 32.4101 263.388 34.7067 262.876 37.0221C261.088 45.1141 260.34 53.3136 260.911 61.5723C261.34 67.7791 262.683 73.8165 265.818 79.3133C267.836 82.8523 270.415 85.8589 274.14 87.6473C279.58 90.2612 284.662 89.3039 289.395 85.8267C292.86 83.2826 295.248 79.8511 297.183 76.0647C297.548 75.352 297.88 74.6232 298.33 73.6901C304.484 81.7928 308.413 90.6727 309.544 100.644C310.683 110.689 308.774 120.233 303.797 129.363C311.106 129.742 315.86 125.601 320.548 120.671C320.548 123.167 320.65 125.361 320.529 127.542C320.216 133.233 319.283 138.824 317.525 144.259C313.566 156.492 306.646 166.744 296.827 174.967C290.834 179.985 284.091 183.772 276.707 186.364C276.552 186.418 276.38 186.426 276.214 186.456C275.933 186.367 275.7 186.41 275.574 186.711C275.04 186.961 274.496 187.179 273.896 187.203C273.663 187.15 273.454 187.171 273.309 187.394C271.859 187.897 270.382 188.293 268.863 188.51C268.622 188.432 268.399 188.427 268.228 188.653C268.003 188.682 267.775 188.709 267.55 188.739C267.233 188.674 266.92 188.623 266.692 188.943C266.47 188.959 266.244 188.978 266.019 188.994C265.695 188.93 265.376 188.881 265.159 189.223C264.784 189.242 264.411 189.263 264.036 189.282C263.696 189.196 263.347 189.086 263.114 189.484C262.803 189.653 262.468 189.664 262.128 189.61C262.128 189.487 262.125 189.363 262.123 189.239C266.906 187.994 271.17 185.757 274.772 182.355C279.428 177.958 282.419 172.625 283.483 166.257C284.994 157.229 282.695 149.255 276.887 142.25C276.643 141.957 276.394 141.664 276.123 141.397C274.818 140.104 274.129 140.08 272.803 141.373C271.326 142.812 269.734 143.958 267.625 144.323C265.079 144.767 262.945 143.923 261.093 142.333C257.853 139.553 256.36 135.831 255.76 131.7C255.039 126.746 256.06 122.123 258.435 117.759C258.705 117.259 259.11 116.694 258.612 116.118C258.119 115.551 257.494 115.675 256.851 115.866C256.331 116.019 255.787 116.089 255.254 116.194L255.248 116.191Z" fill="#4E5DC0"/>
<path d="M262.118 189.237C262.118 189.361 262.121 189.485 262.124 189.608C260.918 189.821 259.709 190.033 258.168 189.818C259.717 189.829 260.902 189.442 262.118 189.237Z" fill="#FE6536"/>
<path d="M266.688 188.943C266.917 188.625 267.229 188.676 267.548 188.738C267.315 189.026 267.024 189.077 266.688 188.943Z" fill="#FE6536"/>
<path d="M265.146 189.223C265.364 188.882 265.684 188.93 266.009 188.995C265.767 189.24 265.498 189.39 265.146 189.223Z" fill="#FE6536"/>
<path d="M263.102 189.485C263.338 189.087 263.685 189.197 264.026 189.283C263.755 189.52 263.454 189.625 263.102 189.485Z" fill="#FE6536"/>
<path d="M275.571 186.71C275.697 186.407 275.927 186.366 276.211 186.455C276.034 186.632 275.852 186.794 275.571 186.71Z" fill="#FE6536"/>
<path d="M273.302 187.397C273.448 187.172 273.658 187.15 273.893 187.205C273.758 187.462 273.558 187.516 273.302 187.397Z" fill="#FE6536"/>
<path d="M268.225 188.653C268.396 188.427 268.618 188.432 268.859 188.51C268.688 188.739 268.476 188.782 268.225 188.653Z" fill="#FE6536"/>
<path d="M35.952 327.44C29.04 327.44 23.12 325.936 18.192 322.928C13.264 319.888 9.472 315.664 6.816 310.256C4.192 304.848 2.88 298.576 2.88 291.44C2.88 284.304 4.192 278.032 6.816 272.624C9.472 267.216 13.264 263.008 18.192 260C23.12 256.96 29.04 255.44 35.952 255.44C43.92 255.44 50.56 257.44 55.872 261.44C61.184 265.408 64.912 270.768 67.056 277.52L55.392 280.736C54.048 276.224 51.76 272.704 48.528 270.176C45.296 267.616 41.104 266.336 35.952 266.336C31.312 266.336 27.44 267.376 24.336 269.456C21.264 271.536 18.944 274.464 17.376 278.24C15.84 281.984 15.056 286.384 15.024 291.44C15.024 296.496 15.792 300.912 17.328 304.688C18.896 308.432 21.232 311.344 24.336 313.424C27.44 315.504 31.312 316.544 35.952 316.544C41.104 316.544 45.296 315.264 48.528 312.704C51.76 310.144 54.048 306.624 55.392 302.144L67.056 305.36C64.912 312.112 61.184 317.488 55.872 321.488C50.56 325.456 43.92 327.44 35.952 327.44ZM106.827 327.44C99.915 327.44 93.995 325.936 89.067 322.928C84.139 319.888 80.347 315.664 77.691 310.256C75.067 304.848 73.755 298.576 73.755 291.44C73.755 284.304 75.067 278.032 77.691 272.624C80.347 267.216 84.139 263.008 89.067 260C93.995 256.96 99.915 255.44 106.827 255.44C113.739 255.44 119.659 256.96 124.587 260C129.547 263.008 133.339 267.216 135.963 272.624C138.619 278.032 139.947 284.304 139.947 291.44C139.947 298.576 138.619 304.848 135.963 310.256C133.339 315.664 129.547 319.888 124.587 322.928C119.659 325.936 113.739 327.44 106.827 327.44ZM106.827 316.544C111.467 316.576 115.323 315.552 118.395 313.472C121.499 311.392 123.819 308.464 125.355 304.688C126.923 300.912 127.707 296.496 127.707 291.44C127.707 286.384 126.923 282 125.355 278.288C123.819 274.544 121.499 271.632 118.395 269.552C115.323 267.472 111.467 266.4 106.827 266.336C102.187 266.304 98.331 267.328 95.259 269.408C92.187 271.488 89.867 274.416 88.299 278.192C86.763 281.968 85.995 286.384 85.995 291.44C85.995 296.496 86.763 300.896 88.299 304.64C89.835 308.352 92.139 311.248 95.211 313.328C98.315 315.408 102.187 316.48 106.827 316.544ZM149.501 326V256.88H171.533C172.109 256.88 173.245 256.896 174.941 256.928C176.669 256.96 178.333 257.072 179.933 257.264C185.405 257.968 190.029 259.92 193.805 263.12C197.613 266.288 200.493 270.336 202.445 275.264C204.397 280.192 205.373 285.584 205.373 291.44C205.373 297.296 204.397 302.688 202.445 307.616C200.493 312.544 197.613 316.608 193.805 319.808C190.029 322.976 185.405 324.912 179.933 325.616C178.365 325.808 176.717 325.92 174.989 325.952C173.261 325.984 172.109 326 171.533 326H149.501ZM161.261 315.104H171.533C172.493 315.104 173.709 315.072 175.181 315.008C176.685 314.944 178.013 314.8 179.165 314.576C182.429 313.968 185.085 312.512 187.133 310.208C189.181 307.904 190.685 305.104 191.645 301.808C192.637 298.512 193.133 295.056 193.133 291.44C193.133 287.696 192.637 284.176 191.645 280.88C190.653 277.584 189.117 274.816 187.037 272.576C184.989 270.336 182.365 268.912 179.165 268.304C178.013 268.048 176.685 267.904 175.181 267.872C173.709 267.808 172.493 267.776 171.533 267.776H161.261V315.104ZM216.72 326V256.88H261.36V267.728H228.288V284.768H255.6V295.616H228.288V315.152H261.36V326H216.72Z" fill="black"/>
<path d="M292.095 326V256.88H305.151V285.296H336.063V256.88H349.119V326H336.063V297.488H305.151V326H292.095ZM362.595 326V256.88H407.715V269.072H375.651V283.856H401.955V296.048H375.651V313.808H407.715V326H362.595ZM420.18 326V256.88H433.236V313.808H462.996V326H420.18ZM471.158 326V256.88H500.342C501.014 256.88 501.91 256.912 503.03 256.976C504.182 257.008 505.206 257.104 506.102 257.264C510.23 257.904 513.606 259.264 516.229 261.344C518.886 263.424 520.838 266.048 522.086 269.216C523.334 272.352 523.958 275.856 523.958 279.728C523.958 283.6 523.318 287.12 522.038 290.288C520.79 293.424 518.838 296.032 516.182 298.112C513.558 300.192 510.198 301.552 506.102 302.192C505.206 302.32 504.182 302.416 503.03 302.48C501.878 302.544 500.982 302.576 500.342 302.576H484.214V326H471.158ZM484.214 290.384H499.766C500.438 290.384 501.174 290.352 501.974 290.288C502.774 290.224 503.51 290.096 504.182 289.904C505.942 289.424 507.302 288.624 508.262 287.504C509.222 286.352 509.878 285.088 510.23 283.712C510.614 282.304 510.806 280.976 510.806 279.728C510.806 278.48 510.614 277.168 510.23 275.792C509.878 274.384 509.222 273.12 508.262 272C507.302 270.848 505.942 270.032 504.182 269.552C503.51 269.36 502.774 269.232 501.974 269.168C501.174 269.104 500.438 269.072 499.766 269.072H484.214V290.384Z" fill="#6674CC"/>
</svg>
